<svg width="18" height="18" viewBox="0 0 18 18" fill="none" xmlns="http://www.w3.org/2000/svg">
<path d="M5.1084 8.1626H6.56786V9.62206H5.1084V8.1626ZM5.1084 11.0815H6.56786V12.541H5.1084V11.0815ZM8.02732 8.1626H9.48678V9.62206H8.02732V8.1626ZM8.02732 11.0815H9.48678V12.541H8.02732V11.0815ZM10.9462 8.1626H12.4057V9.62206H10.9462V8.1626ZM10.9462 11.0815H12.4057V12.541H10.9462V11.0815Z" fill="#7C7D81"/>
<path d="M3.64891 16.1893H13.8651C14.67 16.1893 15.3246 15.5348 15.3246 14.7299V4.51365C15.3246 3.70875 14.67 3.05419 13.8651 3.05419H12.4057V1.59473H10.9462V3.05419H6.56783V1.59473H5.10837V3.05419H3.64891C2.84402 3.05419 2.18945 3.70875 2.18945 4.51365V14.7299C2.18945 15.5348 2.84402 16.1893 3.64891 16.1893ZM13.8651 5.9731L13.8659 14.7299H3.64891V5.9731H13.8651Z" fill="#7C7D81"/>
</svg>
