<svg width="21" height="21" viewBox="0 0 21 21" fill="none" xmlns="http://www.w3.org/2000/svg">
<g clip-path="url(#clip0)">
<path d="M4.796 1.7429C4.71852 1.64323 4.62072 1.56119 4.5091 1.50222C4.39747 1.44325 4.27457 1.40871 4.14857 1.40089C4.02257 1.39307 3.89635 1.41215 3.77829 1.45686C3.66023 1.50157 3.55303 1.57089 3.46382 1.66021L2.10669 3.01865C1.47275 3.6539 1.23913 4.55296 1.51607 5.34177C2.66548 8.60673 4.5352 11.571 6.98657 14.0148C9.43035 16.4661 12.3946 18.3358 15.6596 19.4853C16.4484 19.7622 17.3474 19.5286 17.9827 18.8946L19.3398 17.5375C19.4291 17.4483 19.4985 17.3411 19.5432 17.2231C19.5879 17.105 19.607 16.9788 19.5991 16.8528C19.5913 16.7268 19.5568 16.6039 19.4978 16.4922C19.4388 16.3806 19.3568 16.2828 19.2571 16.2053L16.2292 13.8507C16.1227 13.7681 15.9989 13.7108 15.867 13.6831C15.7351 13.6553 15.5987 13.6579 15.4679 13.6906L12.5936 14.4085C12.2099 14.5044 11.8079 14.4993 11.4268 14.3938C11.0457 14.2882 10.6984 14.0857 10.4188 13.8061L7.19525 10.5813C6.91539 10.3018 6.71268 9.95453 6.60688 9.5734C6.50107 9.19228 6.49578 8.79024 6.59151 8.40646L7.31076 5.53209C7.34345 5.40136 7.34602 5.26491 7.31828 5.13304C7.29054 5.00117 7.23322 4.87732 7.15063 4.77084L4.796 1.7429ZM2.47288 0.670586C2.70256 0.440833 2.97849 0.26257 3.28235 0.147636C3.58621 0.032701 3.91104 -0.0162754 4.23528 0.00395851C4.55952 0.0241924 4.87574 0.113173 5.16296 0.264993C5.45017 0.416813 5.7018 0.627998 5.90113 0.884524L8.25576 3.91115C8.68757 4.46634 8.83982 5.18952 8.66919 5.87202L7.95126 8.7464C7.91414 8.89528 7.91614 9.05122 7.95708 9.19909C7.99801 9.34696 8.07649 9.48174 8.18488 9.59034L11.4097 12.8151C11.5184 12.9238 11.6534 13.0024 11.8015 13.0433C11.9497 13.0842 12.1059 13.0861 12.2549 13.0488L15.128 12.3308C15.4648 12.2466 15.8164 12.2401 16.1561 12.3117C16.4958 12.3833 16.8147 12.5312 17.0889 12.7443L20.1155 15.0989C21.2036 15.9455 21.3033 17.5533 20.3294 18.5258L18.9723 19.883C18.0011 20.8542 16.5494 21.2808 15.1963 20.8043C11.7328 19.5857 8.58817 17.6029 5.99563 15.0031C3.39595 12.4109 1.41318 9.26675 0.19438 5.80377C-0.280745 4.4519 0.145817 2.99896 1.11707 2.02771L2.47419 0.670586H2.47288Z" fill="#2C96D5"/>
</g>
<defs>
<clipPath id="clip0">
<rect width="21" height="21" fill="white"/>
</clipPath>
</defs>
</svg>
