<svg width="30" height="30" viewBox="0 0 30 30" fill="none" xmlns="http://www.w3.org/2000/svg">
<path d="M6.6965 5.35693H23.3036C24.1931 5.35688 25.0488 5.69717 25.6953 6.30801C26.3418 6.91885 26.7301 7.75393 26.7804 8.64193L26.7858 8.83908V21.1605C26.7858 22.0499 26.4455 22.9057 25.8347 23.5522C25.2239 24.1987 24.3888 24.5869 23.5008 24.6373L23.3036 24.6426H6.6965C5.80706 24.6427 4.95132 24.3024 4.30482 23.6916C3.65832 23.0807 3.27007 22.2457 3.21971 21.3576L3.21436 21.1605V8.83908C3.2143 7.94964 3.55459 7.0939 4.16543 6.4474C4.77627 5.8009 5.61135 5.41265 6.49936 5.36229L6.6965 5.35693H23.3036H6.6965ZM25.1786 11.6837L15.3708 16.7837C15.2758 16.8331 15.1719 16.863 15.0652 16.8716C14.9584 16.8803 14.8511 16.8675 14.7494 16.8341L14.6294 16.7837L4.8215 11.6837V21.1605C4.82152 21.6311 4.99847 22.0844 5.31723 22.4306C5.63599 22.7767 6.07325 22.9904 6.54221 23.0291L6.6965 23.0355H23.3036C23.7744 23.0355 24.2279 22.8584 24.574 22.5394C24.9202 22.2204 25.1337 21.7829 25.1722 21.3137L25.1786 21.1605V11.6837ZM23.3036 6.96408H6.6965C6.22594 6.96409 5.77259 7.14105 5.42644 7.45981C5.08029 7.77856 4.86665 8.21583 4.82793 8.68479L4.8215 8.83908V9.87193L15.0001 15.1648L25.1786 9.87193V8.83908C25.1786 8.36835 25.0015 7.91485 24.6825 7.56868C24.3635 7.2225 23.926 7.00897 23.4569 6.97051L23.3036 6.96408Z" fill="#2C96D5"/>
</svg>
