<svg width="33" height="33" viewBox="0 0 33 33" fill="none" xmlns="http://www.w3.org/2000/svg">
<path d="M16.5 3.09375C11.3881 3.09375 7.21875 7.26309 7.21875 12.375C7.21875 13.8249 7.80656 15.4894 8.60475 17.3054C9.40191 19.1225 10.4301 21.0519 11.4727 22.8484C12.7863 25.1023 14.184 27.3063 15.6626 29.4556L16.5 30.6797L17.3384 29.4546C17.3384 29.4546 19.4411 26.4464 21.5273 22.8484C22.571 21.0519 23.5981 19.1225 24.3953 17.3054C25.1934 15.4894 25.7812 13.8249 25.7812 12.375C25.7812 7.26309 21.6119 3.09375 16.5 3.09375ZM16.5 5.15625C20.5002 5.15625 23.7188 8.37478 23.7188 12.375C23.7188 13.2 23.2753 14.7634 22.5266 16.468C21.7769 18.1717 20.7426 20.0609 19.7227 21.8171C18.1036 24.6128 17.0961 26.0917 16.5 26.9734C15.9039 26.0917 14.8964 24.6128 13.2773 21.8171C12.2585 20.0609 11.2231 18.1717 10.4734 16.468C9.72469 14.7634 9.28125 13.2 9.28125 12.375C9.28125 8.37478 12.4998 5.15625 16.5 5.15625ZM16.5 10.3125C15.953 10.3125 15.4284 10.5298 15.0416 10.9166C14.6548 11.3034 14.4375 11.828 14.4375 12.375C14.4375 12.922 14.6548 13.4466 15.0416 13.8334C15.4284 14.2202 15.953 14.4375 16.5 14.4375C17.047 14.4375 17.5716 14.2202 17.9584 13.8334C18.3452 13.4466 18.5625 12.922 18.5625 12.375C18.5625 11.828 18.3452 11.3034 17.9584 10.9166C17.5716 10.5298 17.047 10.3125 16.5 10.3125Z" fill="#2C96D5"/>
</svg>
