<svg width="54" height="54" viewBox="0 0 54 54" fill="none" xmlns="http://www.w3.org/2000/svg">
<path d="M29.5799 15.705C26.4134 15.0862 23.1374 15.3562 20.1149 16.485C19.9681 16.5431 19.8343 16.6295 19.7209 16.7394C19.6076 16.8492 19.517 16.9803 19.4543 17.1252C19.3277 17.4177 19.3225 17.7486 19.4399 18.045C19.5572 18.3414 19.7875 18.579 20.0801 18.7056C20.3726 18.8321 20.7035 18.8373 20.9999 18.72C23.6023 17.736 26.4253 17.4869 29.1599 18C29.3202 18.0422 29.4875 18.0507 29.6512 18.025C29.815 17.9993 29.9716 17.94 30.1113 17.8508C30.251 17.7615 30.3707 17.6443 30.4628 17.5065C30.555 17.3687 30.6176 17.2134 30.6467 17.0502C30.6758 16.887 30.6707 16.7196 30.6319 16.5584C30.5931 16.3973 30.5213 16.2459 30.4211 16.1139C30.3209 15.9819 30.1944 15.8721 30.0496 15.7913C29.9048 15.7106 29.7449 15.6608 29.5799 15.645V15.705Z" fill="#2CADE9"/>
<path d="M38.0698 27.105C39.1964 27.105 40.1098 26.1917 40.1098 25.065C40.1098 23.9384 39.1964 23.025 38.0698 23.025C36.9431 23.025 36.0298 23.9384 36.0298 25.065C36.0298 26.1917 36.9431 27.105 38.0698 27.105Z" fill="#2CADE9"/>
<path d="M53.2652 27.945C53.1262 27.7393 52.9383 27.5714 52.7184 27.4562C52.4985 27.341 52.2534 27.2822 52.0052 27.285C50.7933 27.1168 49.6814 26.521 48.8702 25.605C47.3091 23.8987 45.9824 21.9919 44.9252 19.935L49.2452 13.185C49.5073 12.7939 49.6679 12.3436 49.7124 11.8748C49.757 11.406 49.684 10.9335 49.5002 10.5C49.3161 10.1056 49.0378 9.76254 48.6899 9.50097C48.3421 9.2394 47.9352 9.06737 47.5052 9.00002C44.758 8.62979 41.9619 9.01886 39.4202 10.125C37.9635 10.7666 36.5929 11.588 35.3402 12.57C32.8867 11.4699 30.2742 10.7661 27.6002 10.485C16.9652 9.45002 7.24518 16.35 6.00018 25.5C5.51498 25.2818 5.08044 24.965 4.7241 24.57C4.36776 24.1749 4.09741 23.7101 3.93018 23.205C3.82323 22.8587 3.78671 22.4945 3.82278 22.1338C3.85885 21.7731 3.96677 21.4233 4.14018 21.105C4.29569 20.8378 4.51795 20.6155 4.78518 20.46C4.96739 20.3497 5.12609 20.2046 5.25221 20.033C5.37834 19.8613 5.46942 19.6665 5.52026 19.4597C5.5711 19.2528 5.5807 19.038 5.54852 18.8274C5.51633 18.6169 5.44299 18.4147 5.33268 18.2325C5.22237 18.0503 5.07725 17.8916 4.90561 17.7655C4.73397 17.6394 4.53916 17.5483 4.33232 17.4974C4.12548 17.4466 3.91065 17.437 3.70009 17.4692C3.48954 17.5014 3.28739 17.5747 3.10518 17.685C2.37906 18.1307 1.77985 18.7558 1.36518 19.5C0.979654 20.1985 0.737304 20.9669 0.65231 21.7602C0.567315 22.5534 0.641383 23.3557 0.87018 24.12C1.1518 25.0462 1.61882 25.9054 2.24285 26.6455C2.86688 27.3856 3.63488 27.991 4.50018 28.425L5.88018 29.115C6.05258 32.7664 6.98225 36.3421 8.61018 39.615L8.86518 40.185C10.1662 42.9366 11.8256 45.5038 13.8002 47.82C13.9407 47.98 14.1138 48.1083 14.3077 48.1962C14.5017 48.2841 14.7122 48.3298 14.9252 48.33H21.7052C21.9509 48.3288 22.1925 48.2673 22.4088 48.1508C22.6251 48.0343 22.8095 47.8665 22.9458 47.6621C23.0821 47.4577 23.166 47.2229 23.1903 46.9784C23.2147 46.734 23.1785 46.4873 23.0852 46.26L22.5002 44.91L24.2702 45.105C26.2653 45.3023 28.275 45.3023 30.2702 45.105C30.8252 46.005 31.4252 46.905 32.0852 47.79C32.2233 47.9791 32.4038 48.1332 32.6122 48.24C32.8206 48.3468 33.051 48.4033 33.2852 48.405H39.7952C40.0428 48.4048 40.2864 48.3433 40.5045 48.2261C40.7225 48.1088 40.9081 47.9394 41.0448 47.7329C41.1814 47.5265 41.2649 47.2894 41.2876 47.0429C41.3104 46.7963 41.2717 46.548 41.1752 46.32C40.9202 45.72 40.6652 45.075 40.4702 44.52C40.2002 43.725 39.9902 43.02 39.8252 42.345C41.4818 41.4507 43.0021 40.3243 44.3402 39C45.8347 39.1807 47.3456 39.1807 48.8402 39C49.0995 38.9608 49.344 38.8543 49.5493 38.6911C49.7546 38.5279 49.9135 38.3138 50.0102 38.07L53.4002 29.355C53.4956 29.1271 53.5331 28.8791 53.5096 28.6331C53.486 28.3871 53.4021 28.1507 53.2652 27.945ZM47.5952 36.105C46.4176 36.1721 45.2363 36.1168 44.0702 35.94C42.7423 35.7157 41.4602 35.2748 40.2752 34.635C39.9242 34.461 39.5191 34.4312 39.1465 34.5519C38.7738 34.6727 38.4632 34.9344 38.281 35.2812C38.0988 35.628 38.0594 36.0323 38.1714 36.4077C38.2834 36.783 38.5378 37.0997 38.8802 37.29C39.5071 37.6187 40.1533 37.9092 40.8152 38.16C39.9972 38.8584 39.0891 39.4436 38.1152 39.9L36.5252 40.62C36.5252 40.62 37.2602 43.905 37.7552 45.36H34.1852C33.8252 44.85 32.0102 41.82 32.0102 41.82L31.0052 41.955C28.8941 42.2594 26.755 42.3198 24.6302 42.135C23.6402 42.045 21.9902 41.835 20.7002 41.61L18.3752 41.205C18.3752 41.205 19.3202 44.85 19.5002 45.315H15.6302C14.0493 43.3794 12.7095 41.2588 11.6402 39L11.3702 38.415C9.42123 34.6634 8.5982 30.4285 9.00018 26.22C9.81018 18.435 18.1802 12.555 27.2852 13.41C29.9338 13.7069 32.5115 14.4579 34.9052 15.63L35.8352 16.065L36.5852 15.36C37.7532 14.3163 39.0733 13.4564 40.5002 12.81C42.388 11.9912 44.4502 11.6561 46.5002 11.835L41.4302 19.77L41.8052 20.52C43.1152 23.1587 44.7863 25.6022 46.7702 27.78C47.6917 28.6806 48.7827 29.3893 49.9802 29.865L47.5952 36.105Z" fill="#2CADE9"/>
</svg>
