<svg width="52" height="52" viewBox="0 0 52 52" fill="none" xmlns="http://www.w3.org/2000/svg">
<path d="M47.9882 20.9219H34.9882C34.7647 20.9219 34.5819 21.1047 34.5819 21.3281V23.7656C34.5819 23.9891 34.7647 24.1719 34.9882 24.1719H47.9882C48.2116 24.1719 48.3944 23.9891 48.3944 23.7656V21.3281C48.3944 21.1047 48.2116 20.9219 47.9882 20.9219ZM41.1835 27.8281H34.9882C34.7647 27.8281 34.5819 28.0109 34.5819 28.2344V30.6719C34.5819 30.8953 34.7647 31.0781 34.9882 31.0781H41.1835C41.4069 31.0781 41.5897 30.8953 41.5897 30.6719V28.2344C41.5897 28.0109 41.4069 27.8281 41.1835 27.8281ZM24.2378 16.377H22.039C21.7241 16.377 21.4702 16.6309 21.4702 16.9457V29.5395C21.4702 29.7223 21.5565 29.8898 21.7038 29.9965L29.2651 35.5113C29.519 35.6941 29.8745 35.6434 30.0573 35.3895L31.3624 33.607V33.602C31.5452 33.348 31.4894 32.9926 31.2354 32.8098L24.8015 28.1582V16.9457C24.8065 16.6309 24.5476 16.377 24.2378 16.377Z" fill="#2CAAE6"/>
<path d="M40.8688 34.2215H37.9336C37.6493 34.2215 37.3801 34.3688 37.2278 34.6125C36.5828 35.6332 35.8313 36.5777 34.968 37.441C33.4801 38.9289 31.7485 40.0969 29.8239 40.9094C27.8282 41.7524 25.7106 42.1789 23.527 42.1789C21.3383 42.1789 19.2207 41.7524 17.2301 40.9094C15.3055 40.0969 13.5739 38.9289 12.086 37.441C10.5981 35.9531 9.43011 34.2215 8.61761 32.2969C7.77464 30.3063 7.34808 28.1887 7.34808 26C7.34808 23.8113 7.77464 21.6988 8.61761 19.7031C9.43011 17.7785 10.5981 16.0469 12.086 14.559C13.5739 13.0711 15.3055 11.9031 17.2301 11.0906C19.2207 10.2477 21.3434 9.8211 23.527 9.8211C25.7157 9.8211 27.8332 10.2477 29.8239 11.0906C31.7485 11.9031 33.4801 13.0711 34.968 14.559C35.8313 15.4223 36.5828 16.3668 37.2278 17.3875C37.3801 17.6313 37.6493 17.7785 37.9336 17.7785H40.8688C41.2192 17.7785 41.4426 17.4129 41.2852 17.1031C37.9743 10.5168 31.261 6.23595 23.7657 6.14962C12.7918 6.01251 3.6766 14.9957 3.65628 25.9594C3.63597 36.9434 12.5379 45.8555 23.5219 45.8555C31.1137 45.8555 37.9387 41.5594 41.2852 34.8969C41.4426 34.5871 41.2141 34.2215 40.8688 34.2215Z" fill="#2CAAE6"/>
</svg>
