<svg width="58" height="58" viewBox="0 0 58 58" fill="none" xmlns="http://www.w3.org/2000/svg">
<path d="M56.5386 24.5025L50.9667 13.8323C50.5791 13.098 49.9201 12.5439 49.13 12.2882C48.3399 12.0325 47.4813 12.0953 46.7368 12.4632L41.3664 15.1482H37.4493L29.8844 11.7253C29.1945 11.4135 28.4159 11.3584 27.689 11.5701L16.4919 14.8347L11.2633 12.2206C10.5188 11.8526 9.66016 11.7897 8.87008 12.0454C8.07999 12.301 7.42089 12.8549 7.0331 13.5892L1.46125 24.2599C1.26629 24.6333 1.14766 25.0418 1.11228 25.4615C1.0769 25.8813 1.12548 26.3039 1.25519 26.7046C1.3849 27.1054 1.59314 27.4763 1.86775 27.7957C2.14236 28.1151 2.47784 28.3767 2.85461 28.565L8.33289 31.3042L20.6094 40.9038C20.9591 41.178 21.3627 41.3752 21.7939 41.4825L34.9248 44.7651C35.1741 44.8273 35.4302 44.8586 35.6871 44.8585C36.5302 44.8586 37.3391 44.525 37.9371 43.9307L46.274 35.5939C46.2808 35.5871 46.2866 35.5801 46.293 35.5733C46.3017 35.564 46.3103 35.5547 46.3188 35.5452C46.3279 35.5354 46.3372 35.5261 46.346 35.5157L49.7918 31.4847L55.1457 28.8077C55.5224 28.6193 55.8579 28.3578 56.1325 28.0383C56.4071 27.7189 56.6153 27.348 56.745 26.9472C56.8747 26.5464 56.9232 26.1239 56.8878 25.7041C56.8524 25.2844 56.7338 24.8759 56.5388 24.5025H56.5386ZM45.0956 32.7943L36.1432 26.2833C35.9081 26.1123 35.6244 26.0212 35.3337 26.0234C35.043 26.0256 34.7606 26.1209 34.528 26.2953L31.628 28.4703C30.6064 29.2304 29.367 29.6408 28.0937 29.6408C26.8203 29.6408 25.5809 29.2304 24.5593 28.4703L23.3311 27.5491C23.2792 27.5101 23.2364 27.4604 23.2053 27.4034C23.1743 27.3464 23.1559 27.2835 23.1513 27.2187C23.1467 27.154 23.156 27.089 23.1787 27.0282C23.2013 26.9674 23.2368 26.9122 23.2826 26.8663L32.1489 17.9997C32.2341 17.915 32.3492 17.8673 32.4693 17.867H37.1489L37.1553 17.8674L37.1598 17.867H40.8636L47.3073 30.2069L45.0956 32.7943ZM3.84175 25.8673C3.82308 25.8101 3.81607 25.7498 3.82113 25.6898C3.82619 25.6298 3.84321 25.5715 3.8712 25.5182L9.44305 14.8478C9.48177 14.7744 9.5398 14.713 9.61087 14.6702C9.68194 14.6274 9.76336 14.6048 9.84633 14.6049C9.9161 14.6048 9.98492 14.621 10.0473 14.6523L14.4668 16.8619L8.47563 28.3362L4.07035 26.1333C4.01643 26.1065 3.96842 26.0692 3.92916 26.0236C3.8899 25.9779 3.86017 25.9249 3.84175 25.8676V25.8673ZM36.0148 42.0081C35.9593 42.0633 35.8905 42.1033 35.815 42.1242C35.7396 42.145 35.66 42.1461 35.5841 42.1273L22.4529 38.8446C22.3914 38.8294 22.3338 38.8013 22.2839 38.7621L10.7911 29.7753L17.2257 17.4526L28.4501 14.1801C28.554 14.15 28.6652 14.1579 28.7638 14.2023L31.3274 15.3623C30.9145 15.521 30.5395 15.7646 30.2268 16.0773L21.3602 24.9439C21.0389 25.2652 20.7903 25.6519 20.6314 26.0776C20.4725 26.5034 20.407 26.9583 20.4392 27.4117C20.4714 27.865 20.6007 28.3061 20.8182 28.7051C21.0358 29.1041 21.3365 29.4517 21.7001 29.7243L22.928 30.6451C24.4211 31.7561 26.2326 32.3561 28.0937 32.3561C29.9547 32.3561 31.7662 31.7561 33.2593 30.6451L35.3561 29.0727L43.2262 34.7964L36.0148 42.0081ZM54.1581 26.1102C54.1397 26.1675 54.1099 26.2206 54.0707 26.2662C54.0314 26.3119 53.9834 26.3492 53.9295 26.376L49.5242 28.5788L43.533 17.1048L47.9526 14.8949C48.0589 14.8423 48.1816 14.8333 48.2945 14.8699C48.4074 14.9065 48.5015 14.9857 48.5568 15.0907L54.1286 25.7609C54.1566 25.8142 54.1737 25.8726 54.1787 25.9326C54.1838 25.9926 54.1768 26.053 54.1581 26.1102ZM26.6937 48.556C26.6505 48.7292 26.5736 48.8923 26.4674 49.0358C26.3611 49.1793 26.2276 49.3004 26.0745 49.3923C25.9214 49.4842 25.7517 49.545 25.5751 49.5713C25.3985 49.5975 25.2185 49.5887 25.0453 49.5454L18.2167 47.8382C17.7319 47.7162 17.2826 47.4821 16.9049 47.1547L11.7954 42.7134C11.6596 42.5966 11.5481 42.4541 11.4675 42.2941C11.3868 42.1341 11.3386 41.9597 11.3256 41.7811C11.3126 41.6024 11.3351 41.4228 11.3917 41.2529C11.4483 41.0829 11.538 40.9257 11.6555 40.7905C11.7731 40.6553 11.9162 40.5447 12.0767 40.465C12.2371 40.3852 12.4118 40.338 12.5906 40.3261C12.7693 40.3141 12.9487 40.3376 13.1184 40.3952C13.288 40.4528 13.4446 40.5433 13.5792 40.6616L18.6888 45.1029C18.743 45.15 18.8075 45.1836 18.8771 45.201L25.7046 46.9075C26.0543 46.995 26.355 47.2178 26.5405 47.5269C26.726 47.8361 26.7811 48.2062 26.6937 48.556Z" fill="#2CAEEA"/>
</svg>
